<?xml version="1.0" encoding="UTF-8"?>
<svg id="bug" xmlns="http://www.w3.org/2000/svg" viewBox="0 0 157.86 199.98">
  <defs>
    <style>
      .cls-1 {
        fill: #231f20;
      }
    </style>
  </defs>
  <path class="cls-1" d="M150.57,139.91c.2,.03,.39,.06,.59,.09-6.29-.96-12.47-2.44-18.51-4.41v-14.55c6.58,.06,13.14-.44,19.7-1.37,1.73-.25,3.65-2.02,4.48-3.45,.94-1.61,1.34-3.98,.76-5.78-.59-1.81-1.71-3.57-3.45-4.48-1.77-.94-3.42-1.04-5.34-.81,.2-.03,.4-.05,.6-.08-5.56,.74-11.15,1.06-16.75,.99v-17.39c4.29-2.18,8.58-4.36,12.87-6.53,3.5-1.78,4.8-7,2.69-10.26-2.31-3.58-6.51-4.59-10.26-2.69-2.49,1.26-4.98,2.53-7.46,3.79-3.79-13.03-12.33-24.06-23.62-31.06,.17-.49,.33-.99,.49-1.48,.86-2.72,1.72-5.43,2.58-8.15,1.49-4.69,2.9-9.41,4.74-13.97,1.1-2.47,2.36-4.85,3.89-7.09,2.22-3.25,.72-8.46-2.69-10.26-3.81-2.01-7.89-.78-10.26,2.69-4.35,6.36-6.73,13.87-9.04,21.15-1.16,3.67-2.33,7.35-3.49,11.02-4.71-1.33-9.67-2.06-14.8-2.06-5.74,0-11.28,.9-16.48,2.56-4.74-10-11.37-19.11-19.53-26.58-2.9-2.65-7.78-3.08-10.61,0-2.65,2.88-3.09,7.78,0,10.61,2.07,1.9,4.05,3.89,5.91,6,.91,1.03,1.79,2.08,2.64,3.15,.09,.12,.16,.21,.22,.27,.08,.11,.16,.23,.24,.33,.41,.55,.81,1.11,1.2,1.67,2.45,3.49,4.6,7.18,6.45,11.02-14.69,9.74-24.41,26.43-24.41,45.34v.23c-4.37-1.7-8.81-3.2-13.32-4.46-3.78-1.06-8.33,1.3-9.23,5.24-.91,3.98,1.19,8.09,5.24,9.23,5.22,1.46,10.34,3.24,15.36,5.3,.65,.28,1.3,.57,1.95,.86v9.88c-4.92-1.04-9.74-2.47-14.43-4.31-1.7-.67-4.27-.13-5.78,.76-1.56,.91-3.04,2.69-3.45,4.48-.44,1.92-.34,4.07,.76,5.78,1.12,1.74,2.57,2.69,4.48,3.45,5.95,2.34,12.13,4.01,18.42,5.08v11.43c-3.54,1.83-7.15,3.52-10.82,5.1-1.79,.74-3.58,1.47-5.39,2.15-1.87,.71-3.44,1.66-4.48,3.45-.94,1.61-1.34,3.98-.76,5.78,.59,1.81,1.71,3.57,3.45,4.48,1.69,.89,3.92,1.46,5.78,.76,4.56-1.72,9.04-3.62,13.46-5.68,5.29,24.48,27.1,42.88,53.14,42.88,28.11,0,51.3-21.44,54.09-48.82,5.74,1.63,11.59,2.82,17.54,3.68,1.72,.25,4.07-.92,5.27-2.05,1.35-1.28,2.4-3.44,2.34-5.34-.06-1.91-.65-3.9-2.05-5.27-1.44-1.39-2.99-1.95-4.89-2.27Z"/>
</svg>