<?xml version="1.0" encoding="UTF-8"?>
<svg id="frog" xmlns="http://www.w3.org/2000/svg" viewBox="0 0 453.44 469.87">
  <defs>
    <style>
      .cls-1 {
        fill: #fff;
      }

      .cls-2 {
        fill: #0009c0;
      }

      .cls-3 {
        fill: #1c1e34;
      }

      .cls-4 {
        fill: none;
      }

      .cls-5 {
        fill: #525aff;
      }
    </style>
  </defs>
  <path class="cls-4" d="M384.51,315h0s.01,0,.02,0c-.13-.01-.27-.03-.41-.05,.13,.02,.26,.04,.38,.05Z"/>
  <path class="cls-4" d="M384.03,310.9c.37,.06,.76,.1,1.13,.19-.37-.09-.75-.13-1.13-.19Z"/>
  <path class="cls-4" d="M327.65,408.65c-1.63,.83-4.35,.81-5.72,1.89,0,0,0,0,.01,.01,1.37-1.09,4.07-1.07,5.71-1.9,1.85-.68,3.64-1.55,5.39-2.45,4.35-2.08,8.05-4.99,11.51-8.22-3.46,3.22-7.16,6.14-11.51,8.22-1.75,.9-3.54,1.77-5.39,2.45Z"/>
  <path class="cls-4" d="M200.76,360.09s0,0,0,0c-.18,.08-.35,.16-.53,.24,.18-.08,.35-.16,.53-.24,0,0,0,0,0,0Z"/>
  <path class="cls-4" d="M382.17,311.23c-.4,.32-.69,.8-.76,1.32-.03,.23-.03,.44,0,.63-.03-.19-.03-.4,0-.63,.06-.51,.35-.99,.76-1.32Z"/>
  <path class="cls-4" d="M314.44,406.87c-.98-1.52-2.18-3.34-1.73-4.64-.46,1.31,.75,3.12,1.73,4.64Z"/>
  <path class="cls-4" d="M340.17,430.49c-.37,0-.77-.12-1.15-.41-1.88-1.4-3.79-2.8-5.69-4.21,1.9,1.42,3.81,2.81,5.69,4.22,.38,.29,.77,.41,1.15,.41Z"/>
  <path class="cls-4" d="M390.17,308.62c.48,.06,.86,.25,1.13,.52-.27-.27-.65-.47-1.13-.52-.65-.09-1.17,.11-1.54,.45,.37-.35,.89-.54,1.54-.45Z"/>
  <path class="cls-4" d="M314.52,401.02c.76-.01,1.52,.37,1.84,1.16,.47,.91,.96,1.81,1.48,2.69-.52-.88-1-1.78-1.48-2.69-.33-.78-1.09-1.17-1.84-1.16Z"/>
  <path class="cls-4" d="M317.84,404.86c.52,.88,1.06,1.75,1.64,2.59,0,0,0,0,.01,.01,0,0,0,0-.01-.01-.58-.84-1.12-1.71-1.64-2.59Z"/>
  <path class="cls-4" d="M395.32,306.77c-.22-.34-.45-.69-.67-1.03,0,0,0,0,0,0,.22,.34,.44,.69,.67,1.03Z"/>
  <path class="cls-4" d="M328.53,285.53c3.25,.68,6.53,1.4,9.84,2.02-3.31-.63-6.59-1.34-9.84-2.02Z"/>
  <path class="cls-4" d="M329.04,372.27c0-.09,.02-.16,.03-.25,0,.08-.03,.16-.03,.25h0Z"/>
  <path class="cls-4" d="M396.7,331.55c-2.69,1.38-5.05,3.61-7.28,5.52-3.3,3.02-6.53,6.1-9.77,9.18,3.24-3.08,6.47-6.16,9.77-9.18,2.23-1.92,4.59-4.15,7.28-5.52Z"/>
  <path class="cls-4" d="M380.98,339.53c-1.66,1.57-3.32,3.16-4.99,4.74,1.67-1.58,3.33-3.16,4.99-4.74Z"/>
  <path class="cls-4" d="M404.78,331.28c-.51-.29-1.02-.63-1.62-.84,.59,.21,1.11,.56,1.62,.84h0Z"/>
  <path class="cls-4" d="M351.06,436.07s0,0,0,0c.44-3.8-5.71-5.32-8.52-6.26,0,0,0,0-.01,0,0,0,0,0,.01,0,2.82,.94,8.96,2.46,8.52,6.26Z"/>
  <path class="cls-4" d="M351.71,289.45c-1.26,.78-2.59,.4-3.16-.46-.81-.06-1.62-.17-2.3-.23,.68,.05,1.48,.17,2.29,.23,.56,.87,1.9,1.24,3.17,.46Z"/>
  <path class="cls-4" d="M332.64,370.13c1.15-.14,2.3-.34,3.44-.57,16.02-3.48,28.23-14.23,39.92-25.28-11.69,11.05-23.9,21.8-39.92,25.28-1.14,.24-2.28,.43-3.44,.58Z"/>
  <path class="cls-4" d="M207.73,357.04c.76-.25,1.25-.96,1.32-1.72,.57-1.08,.86-2.56,1.36-3.49,2.04-5.19,4.18-10.25,6.58-15.25-2.4,5-4.53,10.06-6.58,15.25-.5,.93-.8,2.4-1.37,3.48-.06,.76-.55,1.47-1.31,1.72-.94,.31-1.86,.7-2.74,1.07-.03,.01-.06,.03-.09,.04,.03-.01,.06-.03,.09-.04,.88-.37,1.79-.76,2.74-1.07Z"/>
  <path class="cls-4" d="M388.37,332.71c-2.48,2.2-4.93,4.5-7.39,6.83,2.46-2.33,4.91-4.62,7.39-6.82,4.33-3.79,10.17-7.81,16.12-5.96,0,0,0-.01,0-.02-5.95-1.84-11.78,2.19-16.12,5.98Z"/>
  <path class="cls-4" d="M397.09,309.32s-.03-.03-.04-.05c-.29-.4-.58-.8-.85-1.2,.28,.4,.56,.8,.85,1.2,.01,.02,.03,.03,.04,.05Z"/>
  <path class="cls-4" d="M355.97,386.62c-1.36,1.28-2.68,2.6-3.99,3.94,1.31-1.34,2.63-2.66,3.99-3.94,13.09-11.92,29.53-19.85,41.36-33.19,.53-.62,1.01-1.27,1.48-1.93-.47,.66-.96,1.31-1.48,1.93-11.84,13.34-28.27,21.27-41.36,33.19Z"/>
  <path class="cls-4" d="M245.04,418.86c-.04-.27-.04-.51-.02-.74-.02,.23-.02,.47,.02,.74,0,0,0,0,0,0Z"/>
  <path class="cls-4" d="M232.4,429.44c.48,.88,1.3,1.68,2.03,2.51-.73-.83-1.55-1.63-2.03-2.51-2.09-4.72,2.73-4.71,6.61-4.35-3.88-.36-8.7-.36-6.61,4.35Z"/>
  <path class="cls-4" d="M341.76,452.31c-.95-1.97-4.43-3.79-3.74-6.27-.69,2.48,2.79,4.3,3.74,6.27Z"/>
  <path class="cls-4" d="M246.62,411.08c-.18,0-.36-.04-.53-.09-3.42,2.75-7.14,5.16-10.84,7.49,3.7-2.33,7.43-4.73,10.86-7.48,.17,.05,.34,.07,.52,.08Z"/>
  <path class="cls-4" d="M246.86,415.87c2.42-1.1,6.53-1.03,8.16-2.54-.31-.21-.62-.4-.94-.57,.32,.17,.64,.36,.94,.57-1.63,1.51-5.74,1.44-8.16,2.54Z"/>
  <path class="cls-4" d="M208.1,415.59c.89,.7,1.85,1.33,2.87,1.88,.02,.01,.04,.02,.06,.03-.02-.01-.04-.02-.06-.03-1.02-.55-1.98-1.19-2.87-1.89-1.17,3.18-4.7,6.17-3.25,8.25,.14,.09,.28,.15,.43,.19-.15-.04-.29-.1-.43-.19-1.44-2.08,2.09-5.07,3.26-8.24Z"/>
  <path class="cls-4" d="M210.47,395.07c-.29,.06-.58,.12-.88,.17,0,0,0,0,0,0,.29-.06,.58-.11,.88-.17Z"/>
  <path class="cls-4" d="M223.46,393.21c-3.14-.74-6.14-1.94-9.26-2.74-4.09-1.1-8.22,.12-11.98,1.74,0,0,0,0,0,0,3.76-1.62,7.89-2.84,11.97-1.74,3.12,.8,6.12,2,9.26,2.74,1.87,.51,1.78,2.77,.56,3.59,1.22-.83,1.31-3.08-.56-3.59Z"/>
  <path class="cls-4" d="M211.63,413.21c.68,.41,1.44,.77,1.9,1.38-.46-.61-1.22-.97-1.9-1.38Z"/>
  <path class="cls-4" d="M205.38,406.59c.85,1.3,1.79,2.56,2.81,3.73,.17,.19,.35,.38,.53,.56-.18-.18-.36-.37-.53-.56-1.02-1.18-1.95-2.43-2.81-3.73Z"/>
  <path class="cls-4" d="M213.91,416.09c-.12,.62-.56,1.14-1.12,1.43,.56-.28,1-.81,1.12-1.43Z"/>
  <path class="cls-4" d="M241.42,409.62c2.97-2.18,5.77-4.59,8.16-7.41,1.25-1.53,2.41-3.21,3.43-4.99-1.02,1.78-2.18,3.46-3.43,4.99-2.4,2.82-5.19,5.23-8.16,7.41Z"/>
  <path class="cls-4" d="M268.74,397.31c-.69-.52-1.4-1.01-2.13-1.45,0,0,0,0,0,0,.73,.44,1.44,.93,2.13,1.45Z"/>
  <path class="cls-4" d="M307.06,459.11c-4.27-5.1-8.15-10.52-12.22-15.77-4.93-7.44-9.39-15.11-12.74-23.44-3.34-9.67-1.81-19.82-11.44-26.12,9.63,6.29,8.11,16.45,11.44,26.12,3.35,8.33,7.81,16.01,12.74,23.44,4.08,5.25,7.96,10.67,12.22,15.77,2.59,2.87,5.68,5.53,9.5,6.47-3.82-.94-6.91-3.59-9.5-6.47Z"/>
  <path class="cls-4" d="M197.54,392.16s.02,0,.03,.01c.08,0,.16,0,.25,0,.32,.04,.63,.06,.95,.07-.32-.02-.63-.04-.95-.07-.09-.01-.19-.02-.28-.02Z"/>
  <path class="cls-4" d="M339.54,455.64c.39-.09,.78-.19,1.16-.33,.18-.14,.33-.27,.46-.4-.14,.13-.29,.27-.46,.4-.38,.14-.77,.24-1.16,.33Z"/>
  <path class="cls-4" d="M322.93,454.86c-2.19,.46-2.74,1.86-2.73,3.52-.02-1.66,.54-3.06,2.73-3.52,4.34-.37,8.98,1.21,13.42,1.17-4.44,.04-9.07-1.54-13.42-1.17Z"/>
  <path class="cls-4" d="M265.6,391.43c-.62,.15-1.04,.59-1.26,1.12,.21-.53,.64-.97,1.26-1.12,1.66-.29,3.09,1.12,4.45,1.97-1.37-.85-2.79-2.25-4.45-1.97Z"/>
  <path class="cls-4" d="M251.74,363.57c-6.76-5.43-15.54-6.83-23.99-6.98-3.31-.13-6.63-.19-9.94-.35-.82-.04-1.75-.19-2.49,.2,.74-.38,1.67-.23,2.49-.2,3.31,.16,6.62,.23,9.94,.35,8.44,.15,17.22,1.55,23.98,6.98,4.51,3.33,7.25,7.59,8.54,12.24-1.29-4.65-4.03-8.91-8.54-12.24Z"/>
  <path class="cls-4" d="M254.15,402.82c.77-1.05,1.49-2.14,2.14-3.26-.66,1.12-1.37,2.21-2.15,3.26-1.2,1.63-2.53,3.13-3.95,4.54,2.13,.41,4.41,1.24,5.97,2.04-1.56-.8-3.84-1.63-5.96-2.04,1.42-1.41,2.74-2.91,3.94-4.54Z"/>
  <path class="cls-4" d="M258.25,410.29c-.28-.09-.55-.13-.81-.12-.09-.06-.2-.13-.3-.2,.11,.07,.23,.14,.32,.21,.25,0,.52,.01,.79,.11,2.62,.55,5.31,.65,7.99,.56-2.68,.09-5.37-.02-7.99-.56Z"/>
  <path class="cls-4" d="M272.65,410.26c.94-.14,1.88-.29,2.8-.49,.06-.02,.12-.03,.19-.05,0,0,0,0,0,0-.06,.02-.13,.03-.19,.05-.93,.19-1.86,.35-2.8,.49Z"/>
  <path class="cls-4" d="M191.21,368.3s0,0,0,0c-2.6,4.46-3.55,9.92-2.06,14.75-1.49-4.84-.55-10.3,2.06-14.75Z"/>
  <path class="cls-4" d="M240.26,425.21c-.4-.04-.82-.09-1.25-.13,.43,.04,.85,.08,1.25,.13Z"/>
  <path class="cls-4" d="M346.3,313.55c-.32-.35-.65-.68-1-1-.07-.07-.15-.12-.23-.19,.08,.06,.16,.12,.23,.19,.35,.32,.69,.65,1,1Z"/>
  <path class="cls-4" d="M307.32,321.61c2.44-8.48,10.36-14.82,19.11-15.45-8.75,.63-16.68,6.97-19.11,15.45-.93,3.4-1.02,7.02-.38,10.5-.65-3.49-.56-7.1,.38-10.5Z"/>
  <path class="cls-4" d="M350.39,338.8c1.57-4.52,1.56-9.53,.72-14.25,.84,4.72,.85,9.73-.72,14.25Z"/>
  <path class="cls-4" d="M393.73,420.57c-1.45,1.75-1.88,4.02-2.24,6.27,.36-2.26,.79-4.52,2.24-6.27Z"/>
  <path class="cls-4" d="M402.93,415.13c-1.8,1.83-4.52,2.43-6.82,3.64,2.29-1.2,5.01-1.81,6.82-3.64Z"/>
  <path class="cls-4" d="M319.78,349.05c-.88-.4-1.74-.84-2.57-1.35,.83,.5,1.68,.95,2.57,1.35Z"/>
  <path class="cls-4" d="M346.39,313.65c1.64,1.84,2.78,4.07,3.58,6.41-.81-2.34-1.95-4.57-3.58-6.41Z"/>
  <path class="cls-4" d="M334.07,351.36c6.11-.61,11.77-3.98,14.91-9.39,.21-.37,.4-.75,.58-1.13-.18,.38-.38,.76-.58,1.13-3.13,5.41-8.8,8.78-14.91,9.39Z"/>
  <path class="cls-4" d="M331.18,351.45s.07,0,.11,0c.45,.02,.89,.02,1.33,0-.44,.01-.89,0-1.33,0-.04,0-.07,0-.11,0Z"/>
  <path class="cls-4" d="M364.78,412.97c-3.13-2.72-5.99-5.74-8.62-8.95-1.19-1.42-2.38-2.83-3.54-4.27-.65-.65-1.16-1.58-1.83-2.25,1.27-1.29,2.51-2.61,3.74-3.93,.33-.35,.69-.67,1.02-1.02-.34,.34-.69,.67-1.02,1.02-1.23,1.32-2.47,2.64-3.74,3.93,.68,.67,1.19,1.6,1.84,2.25,1.16,1.44,2.35,2.85,3.54,4.27,2.64,3.2,5.49,6.23,8.62,8.95,.22,.21,.38,.43,.48,.67,.01,.01,.02,.02,.04,.03-.01-.01-.02-.02-.03-.03-.1-.23-.26-.46-.48-.66Z"/>
  <path class="cls-4" d="M371.2,423.47c-3.21,.18-1.62-1.4-2.19-4.27,.57,2.87-1.02,4.46,2.19,4.27,2.67-.96,4.43-3.04,6.63-2.71-2.21-.33-3.96,1.75-6.63,2.71Z"/>
  <path class="cls-4" d="M390.08,431c.35-.14,.65-.46,.86-1.02,.15-.67,.27-1.36,.38-2.06-.11,.7-.23,1.39-.38,2.06-.22,.56-.51,.88-.86,1.02Z"/>
  <path class="cls-4" d="M340.91,430.33c.22-.1,.42-.24,.59-.41-.17,.17-.37,.31-.59,.41Z"/>
  <path class="cls-4" d="M397.9,401.08c-.27-.18-.55-.34-.83-.48,.28,.14,.56,.3,.83,.48,0,0,0,0,0,0Z"/>
  <path class="cls-4" d="M392.46,406.84c.02,.33,.11,.66,.26,.96-.15-.3-.24-.62-.26-.96Z"/>
  <path class="cls-4" d="M393.77,408.95c1.06,.9,4.05,1.69,6.53,2.5-2.48-.81-5.47-1.6-6.53-2.5Z"/>
  <path class="cls-4" d="M387.91,398.66c.41,.12,.82,.22,1.24,.3-.42-.08-.84-.18-1.24-.3-8.83-1.93-15.76-8.9-20.32-16.42,0,0,0,0,0,0,4.56,7.52,11.5,14.49,20.32,16.41Z"/>
  <path class="cls-4" d="M261.02,379.68c-.14-1.31-.39-2.61-.74-3.88,.35,1.27,.6,2.56,.74,3.88Z"/>
  <path class="cls-4" d="M323.54,295.43c-1.82,.44-3.61,.98-5.35,1.64-1.57,.63-3.04,1.45-4.42,2.39,1.39-.94,2.86-1.76,4.42-2.39,1.74-.66,3.53-1.2,5.35-1.64Z"/>
  <path class="cls-4" d="M226.35,423.32c.25-.01,.53-.08,.84-.17-.3,.1-.59,.16-.84,.17Z"/>
  <path class="cls-4" d="M310.36,307.53c.4-.35,.77-.74,1.13-1.07,0,0,0,0,0,0-.36,.34-.73,.72-1.13,1.07Z"/>
  <path class="cls-4" d="M351.92,305.3c.74,.16,1.55-.09,2.02-.73,0,0,0,0,0,0-.48,.64-1.29,.9-2.02,.73Z"/>
  <path class="cls-4" d="M217.66,360.23c.61,.06,1.29,.1,2.03,.13-.74-.03-1.42-.06-2.03-.13Z"/>
  <path class="cls-4" d="M214.17,425.54c-1-.65-2.07-1.21-3.19-1.54,1.12,.33,2.19,.89,3.19,1.54Z"/>
  <path class="cls-4" d="M220.85,360.38c.68,.01,1.4,.02,2.16,.03-.76,0-1.48-.02-2.16-.03Z"/>
  <path class="cls-4" d="M212.2,394.16s0,0,0,0c-.25,.35-.6,.62-1.03,.75,.42-.13,.78-.4,1.03-.75Z"/>
  <path class="cls-4" d="M353.6,301.9c.16,.15,.3,.3,.41,.47-.12-.16-.26-.32-.41-.47Z"/>
  <path class="cls-4" d="M307.93,308.44c-.27-.08-.54-.23-.81-.49-.64-.7-.71-1.36-.49-1.97-.22,.61-.15,1.26,.49,1.97,.27,.25,.55,.4,.81,.49Z"/>
  <path class="cls-1" d="M336.66,330.92c6.17-.78,5.95-7.16,2.49-10.97-.87-.1-1.5-.74-2.4-.69-1.92,.17-3.52,1.71-4.61,3.2-2.25,3.5-.07,9.05,4.52,8.46Z"/>
  <path class="cls-1" d="M393.8,304.44c.29,.44,.57,.87,.85,1.3,0,0,0,0,0,0-.29-.44-.57-.88-.87-1.33-.01-.02-.03-.04-.04-.06-2.53-3.17-4.36-6.89-7.27-9.77-.09-.09-.18-.18-.27-.27,.09,.09,.18,.18,.27,.27,2.94,2.91,4.77,6.68,7.33,9.86Z"/>
  <path class="cls-1" d="M394.21,297.17c.11-.15,.24-.27,.38-.38,.08-.21,.17-.43,.25-.65,.07-.23,.13-.47,.19-.7-.85-1.59-1.94-3.06-3.24-4.26-.26,.11-.52,.23-.75,.42-.36,.25-.68,.58-.86,.99-.02,.05-.06,.08-.08,.13,1.35,1.55,2.62,3.17,3.8,4.86,.11-.13,.21-.27,.31-.41Z"/>
  <path class="cls-2" d="M255.58,363.11c-.06,.19-.09,.4-.08,.6,0-.21,.02-.41,.08-.6Z"/>
  <path class="cls-2" d="M351.98,390.56c1.31-1.34,2.63-2.66,3.99-3.94,13.09-11.92,29.52-19.85,41.36-33.19,.53-.62,1.01-1.27,1.48-1.93,4.15-5.87,6.03-13.05,5.97-20.22-.51-.29-1.02-.63-1.62-.84-.01,0-.02,0-.03-.01-.09-.03-.19-.06-.29-.08-.03,0-.06-.02-.09-.02-.08-.02-.17-.03-.26-.04-.05,0-.1-.02-.15-.02-.08,0-.17,0-.26,0-.06,0-.11,0-.16,0-1.88-.04-3.61,.48-5.22,1.3-2.69,1.38-5.05,3.61-7.28,5.52-3.3,3.02-6.53,6.1-9.77,9.18-1.92,1.82-3.84,3.64-5.78,5.43-.14,.13-.29,.26-.43,.39-1.09,.99-2.19,1.97-3.31,2.93-.47,.41-.94,.81-1.42,1.21-2.25,1.9-4.58,3.73-6.97,5.47-8.27,5.98-17.38,10.71-27.57,12.26-1.71,.24-4.57,.92-5.06-1.2-.02-.07-.02-.16-.03-.24-.01-.08-.03-.15-.03-.23h0c0-.09,.02-.16,.03-.25,.01-.09,.01-.19,.03-.27,.02-.07,.05-.12,.07-.19,.03-.09,.06-.18,.1-.25,.02-.03,.05-.06,.07-.09,.06-.1,.13-.19,.21-.28,.03-.03,.07-.06,.1-.09,.53-.48,1.32-.68,2.09-.62,.3-.03,.59-.08,.89-.11,1.15-.14,2.3-.34,3.44-.58,16.02-3.48,28.23-14.23,39.92-25.28,1.67-1.58,3.33-3.16,4.99-4.74,2.46-2.33,4.91-4.62,7.39-6.83,4.33-3.78,10.17-7.82,16.12-5.98-.17-1.4-.41-2.8-.72-4.17-.68-3.16-1.81-6.19-3.26-9.07-1.07-1.44-2.35-2.72-3.42-4.17-.01-.02-.03-.03-.04-.05-.29-.4-.58-.8-.85-1.2-.1-.15-.2-.3-.31-.46-.17-.25-.34-.5-.51-.75-.02-.03-.04-.06-.06-.09-.22-.34-.45-.69-.67-1.03-.28-.43-.56-.86-.85-1.3-2.56-3.18-4.39-6.95-7.33-9.86-.09-.09-.18-.18-.27-.27-.87,.6-1.97,.83-3.06,.4-2.17-.93-4.13-2.32-6.34-3.2-3.14-1.23-6.55-1.57-9.88-1.89,1.33,.61,2.36,1.67,2.63,3.27,.03,3.17-3.59,4.68-6.33,4.55-6.35,.22-9.09-4.26-2.92-7.82,1.34-.59,3.09-.81,4.71-.56-1.39-.85-1.87-2.55-1.49-4.03-3.89,.92-7.7,2.23-11.28,4.01-.18,.16-.35,.29-.53,.41-1.27,.78-2.61,.41-3.17-.46-.81-.06-1.61-.17-2.29-.23-.23-.02-.44-.03-.63-.03-2.43-.31-4.85-.73-7.25-1.18-3.31-.63-6.59-1.34-9.84-2.02-1.87-.39-3.73-.77-5.58-1.12-.08-.01-.15-.03-.23-.04,.42,.74,.55,1.65,.2,2.78-.9,2.55-3.58,2.89-5.81,1.89-2.03-.51-4.13-.77-6.21-1.03-6.74-.76-13.52-1.3-20.31-1.3-18.58,.58-37.25,7.71-50.97,20.35-2.8,2.79-5.01,6.08-7.16,9.38-1.31,1.98-2.64,3.95-3.96,5.91-.98,2.04-3.25,3.55-5.38,2.5-1.35,2.41-2.66,4.83-3.93,7.24-.77,1.49-1.51,2.99-2.23,4.48-2.4,5-4.53,10.06-6.58,15.25-.5,.93-.8,2.4-1.36,3.49-.06,.76-.56,1.47-1.32,1.72-.94,.31-1.86,.7-2.74,1.07-.03,.01-.06,.03-.09,.04-1.26,.53-2.51,1.07-3.73,1.69-.12,.09-.26,.17-.41,.24,0,0,0,0,0,0-.18,.08-.35,.16-.53,.24-.41,.18-.82,.36-1.23,.56-.33,.16-.65,.35-.97,.53,.92,.58,1.49,1.66,1.18,2.83-.28,1.29-1.29,2.27-2.28,3.07-1.17,.88-2.59,1.88-4.12,1.61-.67-.1-1.2-.33-1.59-.65-2.6,4.46-3.55,9.92-2.06,14.75,.22,.72,.48,1.43,.81,2.12,.4,.78,.87,1.53,1.4,2.23,.08,.1,.17,.2,.25,.3,.19,.24,.38,.49,.59,.72,.12,.14,.26,.27,.39,.4,.17,.18,.34,.37,.53,.54,.16,.15,.34,.29,.5,.43,.16,.14,.32,.29,.49,.42,.18,.14,.36,.26,.54,.39,.18,.12,.35,.26,.53,.37,.18,.12,.38,.21,.57,.32,.19,.11,.38,.23,.58,.33,.18,.09,.38,.16,.57,.25,.21,.09,.42,.19,.63,.27,.09,0,.18,0,.28,.02,.32,.04,.63,.06,.95,.07,1.15,.06,2.31,.02,3.47-.04,3.76-1.62,7.89-2.84,11.98-1.74,3.12,.8,6.12,2,9.26,2.74,1.87,.51,1.78,2.77,.56,3.59-.41,.28-.94,.39-1.56,.24-.06-.01-.12-.03-.18-.04-.46-.1-.92-.21-1.38-.34-2.91-.81-5.73-2.1-8.7-2.5-.25,.35-.61,.62-1.03,.75-.1,.03-.2,.06-.3,.08-.13,.03-.26,.05-.39,.08-.29,.06-.58,.12-.88,.17,.65,3.36-2.65,7.31-6.2,5.98-.43-.15-.85-.37-1.23-.64,.9,2.09,1.97,4.11,3.22,6.01,.85,1.3,1.79,2.56,2.81,3.73,.17,.19,.35,.38,.53,.56,.71,.73,1.48,1.41,2.35,1.96,.17,.14,.36,.26,.56,.37,.68,.41,1.44,.77,1.9,1.38,.14,.18,.25,.37,.33,.6,.1,.3,.11,.6,.06,.89-.12,.62-.56,1.14-1.12,1.43-.54,.27-1.18,.32-1.75-.02-.02-.01-.04-.02-.06-.03-1.02-.55-1.97-1.18-2.87-1.88-1.17,3.17-4.7,6.16-3.26,8.24,.14,.09,.28,.15,.43,.19,.9,.27,1.95-.25,2.88-.27,.99-.14,1.93-.01,2.83,.25,1.12,.33,2.19,.89,3.19,1.54,.6,.39,1.19,.81,1.76,1.23,5.67,3.85,12.63,9.86,19.9,8.76,.28-1.42-.48-2.53-1.4-3.58-.73-.83-1.55-1.63-2.03-2.51-2.09-4.72,2.73-4.71,6.61-4.35,.43,.04,.85,.08,1.25,.13,.26,.03,.52,.06,.76,.08,.03,0,.05,0,.08,0,.25,.03,.49,.05,.71,.07,.11,0,.22,.02,.33,.02,.79,.03,1.58,.06,2.38,.05,0,0,.02,0,.02,0,1.32-.02,2.63-.14,3.88-.55,4.63-1.98-2.98-3.84-3.38-6.03,0,0,0,0,0,0-.04-.27-.04-.51-.02-.74,0-.02,0-.04,0-.05,.04-.42,.19-.77,.4-1.08,.03-.05,.05-.1,.08-.14,.33-.41,.79-.72,1.35-.98,2.42-1.1,6.53-1.03,8.16-2.54-.31-.21-.62-.4-.94-.57-.03-.01-.05-.02-.08-.04-.37-.19-.75-.36-1.13-.52-1.96-.79-4.12-1.1-6.23-1.12,0,0-.01,0-.02,0-.18,0-.35-.03-.52-.08-3.42,2.75-7.15,5.15-10.86,7.48-.12,.08-.24,.16-.37,.23-1.62,.82-4.92,3.34-7.22,4.26-.16,.06-.32,.12-.47,.17-.3,.1-.59,.16-.84,.17-.13,0-.24,0-.35-.01-.2-.05-.39-.13-.55-.23-.49-.31-.8-.85-.88-1.41-.03-.19-.03-.38,0-.57,.03-.26,.11-.51,.25-.74,.14-.23,.32-.42,.57-.58,.04-.03,.06-.06,.11-.08,3.8-2.1,7.48-4.42,11.13-6.78,1.64-1.05,3.25-2.14,4.82-3.29,2.97-2.18,5.77-4.59,8.16-7.41,1.25-1.53,2.41-3.21,3.43-4.99,2.77-4.83,4.51-10.39,4.23-15.84-.54,1.42-1.94,2.43-3.52,2.36-1.95-.09-3.53-1.8-3.44-3.76,.02-1.39,.2-2.83-.18-4.18-.66-2.62-3.23-3.84-5.4-5.04-3.35-1.82-6.96-3.07-10.66-3.96-2.2-.52-4.46-.91-6.54-1.78-1.85-.75-2.43-2.88-1.83-4.56-.1,0-.2,0-.3,0-.54,0-1.07-.02-1.58-.02-.27,0-.53,0-.79,0-.76,0-1.48-.02-2.16-.03-.4,0-.78-.02-1.16-.03-.74-.03-1.42-.06-2.03-.13-1.53-.15-2.61-.44-3.1-1.02-.17-.2-.26-.43-.28-.7,0-.09,0-.19,0-.29,.04-.4,.23-.87,.57-1.43h0s.03-.02,.05-.04c.13-.13,.28-.23,.43-.31,.74-.38,1.67-.23,2.49-.2,3.31,.16,6.62,.23,9.94,.35,8.44,.15,17.22,1.55,23.99,6.98,4.51,3.33,7.25,7.59,8.54,12.24,.35,1.27,.6,2.56,.74,3.88,.1,.88,.15,1.76,.15,2.65,0,.55-.01,1.1-.04,1.65-.03,.64-.09,1.29-.16,1.94-.04,.39-.1,.77-.16,1.16-.12,.78-.27,1.56-.45,2.33-.27,1.18-.61,2.36-1.01,3.51,0,.03-.02,.05-.03,.08-.43,1.23-.93,2.44-1.49,3.63-.04,.07-.07,.15-.1,.22,0,0,0,.02-.01,.03-.35,.73-.73,1.44-1.13,2.15-.1,.18-.2,.36-.31,.54-.66,1.12-1.37,2.21-2.14,3.26-1.2,1.63-2.52,3.13-3.94,4.54,2.12,.42,4.4,1.24,5.96,2.04,.07,.03,.12,.07,.18,.1,.18,.1,.37,.2,.53,.29,.1,.06,.17,.12,.26,.18,.1,.07,.21,.13,.3,.2,.26-.01,.53,.03,.81,.12,2.62,.55,5.31,.65,7.99,.56,.64-.02,1.28-.05,1.92-.09,1.5-.12,3-.28,4.49-.5,.94-.14,1.88-.3,2.8-.49,.06-.02,.12-.03,.19-.05-.36-1.76-.76-3.51-1.29-5.22-.21-.61-.47-1.19-.77-1.75-.36,.54-1,.91-1.93,.86-1.16-.13-1.94-1.15-2.28-2.19-.32-1.08,.51-1.99,1.51-2.27-.66-.66-1.38-1.26-2.13-1.83-.69-.52-1.4-1.01-2.13-1.45,.59,.63,1.03,1.41,1.22,2.26,1.27,3.88-3.57,7.33-7,5.44-3.17-1.5-3.78-4.49-1.59-7.19,1.03-1.66,1.37-2,3.34-1.95,.7-.13,1.39-.05,2.04,.17-.46-.56-.54-1.37-.27-2.04,.21-.53,.64-.97,1.26-1.12,1.66-.29,3.09,1.12,4.45,1.97,.1,.06,.19,.12,.29,.18,.11,.07,.2,.14,.31,.2,9.63,6.29,8.11,16.45,11.44,26.12,3.35,8.33,7.81,16.01,12.74,23.44,4.08,5.25,7.96,10.67,12.22,15.77,2.59,2.87,5.68,5.53,9.5,6.47,.26,.06,.52,.14,.79,.19,3.34,.68,3.76-.72,3.52-2.73-.11-.95-.37-2.04-.53-3.11-.05-.35-.1-.7-.12-1.04-.01-.17-.02-.34-.02-.5-.02-1.66,.54-3.06,2.73-3.52,4.34-.37,8.98,1.21,13.42,1.17,.54,0,1.08-.05,1.61-.11,.53-.06,1.05-.16,1.57-.28,.39-.09,.78-.19,1.16-.33,.18-.14,.33-.27,.46-.4,.14-.13,.25-.26,.35-.39,.49-.63,.57-1.22,.4-1.8-.04-.13-.09-.26-.15-.4-.95-1.97-4.43-3.79-3.74-6.27,.4-1.43,2.18-3.08,6.64-5.1,2.23-1.4,5.21-2.37,6.4-4.87,.44-3.8-5.71-5.32-8.52-6.26,0,0,0,0-.01,0-.25-.07-.51-.12-.76-.18-.01,.02-.03,.03-.04,.05-.06,.08-.13,.16-.2,.24,0,0-.01,0-.02,.02-.17,.17-.37,.31-.59,.41,0,0,0,0,0,0-.11,.05-.23,.09-.35,.12,0,0,0,0,0,0-.12,.03-.24,.04-.36,.04,0,0,0,0-.01,0-.37,0-.77-.12-1.15-.41-1.88-1.4-3.79-2.8-5.69-4.22-6.77-5.05-13.4-10.41-18.03-17.52-.21-.43-.53-.93-.87-1.47-.98-1.52-2.18-3.34-1.73-4.64,0,0,0,0,0,0,.3-.8,1.05-1.2,1.8-1.21,.76-.01,1.52,.37,1.84,1.16,.47,.91,.96,1.81,1.48,2.69,.52,.88,1.06,1.75,1.64,2.59,0,0,0,0,.01,.01,.77,1.07,1.59,2.09,2.45,3.07,1.37-1.08,4.09-1.06,5.72-1.89,1.85-.68,3.63-1.55,5.39-2.45,4.35-2.08,8.05-4.99,11.51-8.22,1.15-1.07,2.28-2.18,3.39-3.3,.02-.02,.04-.04,.06-.06,1.28-1.3,2.55-2.61,3.83-3.91,.05-.05,.1-.1,.14-.15Zm34.79-77.16c-.02,.08-.02,.16-.05,.24-.04,.12-.11,.23-.17,.34-.03,.05-.05,.1-.08,.15-.08,.12-.19,.23-.29,.33-.02,.02-.04,.05-.07,.07-.12,.11-.26,.19-.4,.27-.02,.01-.04,.03-.06,.04-.14,.07-.3,.11-.45,.14-.02,0-.05,.02-.07,.02-.15,.02-.3,.01-.46,0-.04,0-.07,0-.11,0,0,0-.02,0-.03,0,0,0-.01,0-.02,0h0c-.12-.01-.25-.03-.38-.05-.05,0-.09,0-.13-.02-.13-.02-.26-.05-.39-.07-.06-.01-.13-.02-.19-.04-.12-.03-.24-.07-.35-.11-.07-.02-.14-.04-.21-.06-.11-.04-.21-.09-.31-.14-.06-.03-.13-.06-.19-.09-.1-.06-.18-.13-.27-.19-.05-.04-.12-.08-.16-.12-.08-.08-.14-.17-.21-.26-.04-.05-.08-.09-.11-.15-.06-.11-.09-.24-.13-.37-.01-.05-.04-.09-.05-.15-.03-.19-.03-.4,0-.63,.06-.51,.35-.99,.76-1.32,.4-.32,.93-.5,1.46-.4,.13,.03,.26,.05,.4,.07,.37,.06,.76,.1,1.13,.19,.57,.14,1.08,.37,1.39,.93,.11,.18,.19,.36,.24,.54,.02,.06,0,.13,.02,.19,.02,.12,.04,.24,.03,.36,0,.1-.04,.19-.06,.29Zm2.88-.65c-1.94-.23-2.14-2.64-1.02-3.68,.37-.35,.89-.54,1.54-.45,.48,.06,.86,.25,1.13,.52,1.19,1.19,.45,3.9-1.65,3.61Zm-17.12-21.56c2.3-.41,3.01,2.97,.67,3.35-.59,.5-1.46,.54-2.09,.08-1.53-1.15-.19-3.3,1.42-3.44Zm-160.77,108.69c-1.21-1.59,.23-4.75,2.39-3.82,.58,.1,1.17,.34,1.45,.92,1.43,2.63-1.82,5.41-3.85,2.9Zm35.39-23.02c5.34,1.17,1.89,8.18-2.49,7.34-4.67-1.17-1.68-8.2,2.49-7.34Zm-6.1,17.33c.22-1.17,.63-2.33,1.08-3.37,1.26-3.63,4.61-7.43,8.75-5.39,3.66,1.83,3.93,6.74,2.21,10.12-1.18,4.18-5.03,8.21-9.26,8.09-5.57-.49-5.25-5.82-2.78-9.45Zm-31.26-26.35c1.7,0,3.15,1.34,3.18,3.06,.03,1.68-1.36,3.18-3.06,3.18s-3.15-1.34-3.18-3.06c-.03-1.68,1.36-3.18,3.06-3.18Zm-16.59,5.17c-1.39-.31-1.66-1.99-.95-3.05,.42-.89,1.48-.79,2.26-1.09,.89-.15,1.76,.41,2.01,1.27,.45,1.74-1.78,3.14-3.32,2.88Zm2.93,.11c2.21-1.91,5.44-3.44,8.38-2.6,6.41,3.12-1.63,12.43-6.68,10.94-3.83-.88-4.52-5.92-1.71-8.34Zm6.14,13.07c-.55,1.05-1.89,1.28-2.97,1.06-1.83-.33-2.51-2.79-1.15-4.05,.64-.63,1.49-.88,2.34-1.03,1.23-.19,2.41,.7,2.59,1.92,.12,.81-.22,1.6-.82,2.1Zm14.89-14.15c4.71-.8,8.43,3.93,7.02,8.37-1.13,3.85-4.74,6.32-8.27,7.8-2.71,1.05-6.04,2.48-8.69,.54-.86-.56-1.2-1.48-1.93-2.15-2.85-3.88-.1-7.32,3-9.89,2.58-2.13,5.5-4.12,8.87-4.67Zm3.21-22.36c-.89,.54-2.2,.92-3.13,.29-3.01-2.05-.79-5.66,2.46-4.41,1.96,.57,2.56,3.05,.67,4.12Zm12.74,4.74c-1.49,.91-3.32,.99-5.02,.97-1.27,.45-2.62,.23-3.83-.36-4.29-2.49-2.46-8.45,2.22-9.02,3.22-.31,8.15,.24,8.75,4.16,.27,1.7-.67,3.39-2.13,4.25Zm2.89-15.28c-2.5,3.12-9.22,8.06-13.34,6.36-2.32-.97-3.48-1.74-4.19-4.27-.96-1.68-.42-3.24,.14-4.85,1.65-3.7,5.29-6.17,8.99-7.56,7.77-3.61,13.65,3.54,8.39,10.32Zm28.24,66.07c.91-.4,1.97-1.2,2.94-.58,2.9-.38,5.7,2.31,3.15,4.77-1.55,1.08-3.94,.92-5.72,.56-2.51-.63-2.68-3.71-.37-4.75Zm-4.08-.65c2.18,2.27-1.09,4.82-3.39,3.34-1.72-.81-3.03-3.77-.48-4.36,1.33,0,2.81,.1,3.87,1.03Zm95.95-107.79c2.73,1.16,2.41,5.07-.82,4.79-2.97-.54-2.35-5.61,.82-4.79Zm-7.52-3.69c1.19,.19,2.34,.57,3.47,1.01,1.21,.45,1.35,1.68,.85,2.5-.12,1.16-1.36,2.29-3.52,1.79-7.9-1.43-6.08-7.59-.8-5.3Zm-41.95,12.91c.45-1.24,2.16-2.3,3.04-3.22,1.28-1.2,2.65-2.33,4.1-3.31,1.39-.94,2.86-1.76,4.42-2.39,1.74-.66,3.53-1.2,5.35-1.64,3.78-.91,7.69-1.33,11.55-1.1,5.9,.67,11.41,3.28,16.48,6.25,.47,.26,1.01,.55,1.48,.89,.19,.14,.37,.28,.54,.43,.16,.15,.3,.3,.41,.47,.35,.49,.47,1.06,.18,1.74-.01,.03-.02,.06-.04,.09-.04,.09-.1,.19-.17,.28-.02,.03-.03,.05-.05,.08,0,0,0,0,0,0-.48,.64-1.29,.9-2.02,.73-.02,0-.05,0-.07-.01-.03,0-.06-.02-.09-.03-.22-.07-.43-.17-.62-.32-1.51-.95-3.07-1.83-4.66-2.65,0,1.48-.93,2.94-2.38,3.42-1.78,.67-3.35-.54-5.04-.89-1.3-.33-2.63-.57-3.96-.75-4.81-.44-9.72,.54-14.15,2.41-2.29,.72-4.07,3.19-6.61,2.78-.93-.18-1.77-.72-2.31-1.51-.28-.45-.45-.88-.55-1.3-.36,.34-.73,.72-1.13,1.07-.09,.08-.18,.16-.28,.23-.03,.03-.07,.06-.1,.08-.64,.5-1.33,.82-2.05,.59-.27-.08-.54-.23-.81-.49-.64-.7-.71-1.36-.49-1.97Zm-39.63-9.24c1.95-.56,4.14-.48,5.93,.54,2.67,1.53,4.93,4.12,3.35,7.31-1.89,3.32-6.45,3.84-9.91,3.48-7.66-1.2-5.97-9.84,.63-11.33Zm9.04,60.04c-.52,2.6-2.87,4.2-5.17,5.16-2.26,1.78-5.5,2.71-8.17,1.28-5.07-3.08-1.42-9.47,2.49-11.79,1.37-.85,2.96-1.44,4.59-1.53,3.72-.26,7.29,3.07,6.27,6.88Zm-16.28-59.25c.32,.81,.76,1.74,.43,2.61-.85,2.05-3.93,3.33-5.62,1.54-2.88-3.33,2.68-7.8,5.19-4.15Zm-9.62,9.44c1.69-2.21,5-3.63,7.71-2.72,3.08,1.91,.24,4.36-1.87,5.52-1.33,.78-2.88,1.45-4.45,1.23-1.94-.2-2.54-2.64-1.39-4.03Zm1.32,52.2c-3.39-3.18-1.68-13.14,4.23-10.33,2.39,1.54,2.74,5.03,1.63,7.46-.34,2.98-3.32,5.22-5.87,2.87Zm5.68,7.06c-.56-.24-.94-.74-1.04-1.3-1.83-1.6,.26-4.06,2.3-3.26,3.35,1.18,2.41,5.89-1.26,4.56Zm3.87,5.65c-1.24-.96-1.26-2.73-.71-4.07,.25-.58,.78-.97,1.36-1.05,1.39-.92,3.55-1.17,4.84,.07,2.86,3.11-2.62,7.21-5.49,5.05Zm5.56,14.26c-1.08-1.29,.06-3.79,1.84-3.34,.92,.26,1.91,1.01,1.87,2.05-.04,1.76-2.6,2.77-3.71,1.29Zm1.08-6.63c-3.21-1.82-2.33-6.54,.84-7.89,1.9-.95,3.93-1.62,5.98-2.17,.5-.12,1.01-.02,1.4,.25,.95,.11,1.97,.52,2.57,1.3,3.27,4.71-6.93,10.84-10.79,8.51Zm12.41,13.34c-10.17-2.7-.32-16.75,7.04-13.91,7.68,4.26,0,15.07-7.04,13.91Zm13.57,40.41c-2.42-.22-4.81-1.27-6.2-3.33-1.99-2.48-.23-5.87,2.77-6.26,2.3-.46,4.73,.07,6.86,.95,2.06,.83,3.87,2.91,3.4,5.25-.7,2.88-4.26,3.65-6.83,3.38Zm9.99,8.45c-.42,1.67-2.53,2.36-4.02,1.73-2.17-.67-4.12-3.64-2.44-5.65,2.53-2.51,6.74,.92,6.46,3.92Zm-1.47-4.54s.04,.02,.04,.02c-2.21-.49-1.47-3.83,.73-3.3,2.6,.44,1.71,4.2-.77,3.27Zm1.3-51.05c-2.15-1.45-1.83-6.83-.53-8.77,1.08-1.74,3.82-2.18,5.06-.38,2.08,2.48-.32,11.88-4.53,9.15Zm8.57,9.65c-5.43-3.98-3.91-10.74,.36-15,3.73-4.25,11.05-3.18,12.7,2.44,2.22,6.79-6.38,15.33-13.06,12.56Zm10.46-45.68c-.93-.29-1.84-.66-2.73-1.06-.88-.4-1.74-.84-2.57-1.35-.86-.52-1.71-1.09-2.49-1.73-.65-.54-1.28-1.12-1.87-1.75-2.7-2.97-4.62-6.68-5.59-10.62-.12-.49-.23-.99-.32-1.49-.65-3.49-.56-7.1,.38-10.5,2.44-8.48,10.36-14.82,19.11-15.45,.54-.04,1.08-.06,1.62-.06,5.17,.12,10.41,1.64,14.72,4.53,.8,.53,1.56,1.1,2.29,1.73,.08,.06,.16,.12,.23,.19,.35,.32,.69,.65,1,1,.03,.03,.06,.07,.09,.11,1.64,1.84,2.78,4.07,3.58,6.41,.26,.74,.49,1.49,.68,2.24,.17,.74,.33,1.49,.46,2.24,.84,4.72,.85,9.73-.72,14.25-.22,.65-.48,1.28-.77,1.9-.02,.05-.04,.1-.06,.15-.18,.38-.38,.76-.58,1.13-3.13,5.41-8.8,8.78-14.91,9.39-.41,.04-.82,.07-1.23,.08-.08,0-.15,.01-.23,.01-.44,.01-.89,0-1.33,0-.04,0-.07,0-.11,0-2.92-.03-5.87-.46-8.67-1.34Z"/>
  <path class="cls-2" d="M256.52,287.4c-.07,.04-.14,.09-.22,.13,1.66-.77,3.34-1.48,5.03-2.13-1.62,.6-3.23,1.26-4.81,2.01Z"/>
  <path class="cls-2" d="M400.3,411.45c-2.48-.81-5.47-1.6-6.53-2.5-.09-.08-.17-.15-.23-.23-.31-.2-.54-.46-.71-.74-.02-.03-.05-.06-.06-.09-.02-.03-.02-.06-.04-.09-.15-.3-.24-.62-.26-.96-.04-.73,.24-1.49,.83-2.02,1.35-1.45,3.88-1.72,4.61-3.74-.27-.18-.55-.34-.83-.48-2.38-1.19-5.27-1.12-7.91-1.64-.42-.08-.84-.18-1.24-.3-8.83-1.93-15.76-8.9-20.32-16.41-4.23,3.18-8.33,6.55-12.05,10.31-.34,.34-.69,.67-1.02,1.02-1.23,1.32-2.47,2.64-3.74,3.93,.67,.67,1.18,1.6,1.83,2.25,1.16,1.44,2.35,2.85,3.54,4.27,2.64,3.2,5.49,6.23,8.62,8.95,.22,.21,.38,.43,.48,.66,.01,.01,.02,.02,.03,.03,0,0,0,0,0,0,2.51,2.15,3.41,4.02,3.71,5.53,.57,2.87-1.02,4.46,2.19,4.27,2.67-.96,4.43-3.04,6.63-2.71,.88,.13,1.82,.63,2.93,1.75,1.51,1.16,6.85,9.44,9.32,8.5,.35-.14,.65-.46,.86-1.02,.15-.67,.27-1.36,.38-2.06,.06-.36,.11-.72,.17-1.08,.36-2.26,.79-4.52,2.24-6.27,.14-.17,.29-.34,.46-.5,.58-.52,1.23-.94,1.93-1.3,2.29-1.2,5.01-1.81,6.82-3.64,.34-.34,.64-.72,.9-1.16,.73-.94-1.16-1.74-3.54-2.52Zm-33.23-20.18c-1.54-.02-2.6-2.13-1.47-3.27,.25-.74,1.06-1.21,1.82-1.08,2.24,.38,1.99,4.42-.36,4.34Zm4.94,6.27c-4.06-.84-4.67-8.15,.16-7.8,1.9,.27,3.79,3.11,3.91,4.91,.02,2.05-2.18,3.39-4.08,2.88Z"/>
  <path class="cls-5" d="M334.25,298.23c-6.44-.03-13.05,1.04-18.43,4.61-1.46,1.04-2.79,2.23-3.93,3.26-.13,.11-.26,.23-.39,.35,0,0,0,0,0,0,.1,.42,.27,.85,.55,1.3,.54,.78,1.37,1.33,2.31,1.51,2.54,.41,4.32-2.07,6.61-2.78,4.43-1.86,9.34-2.84,14.15-2.41,1.33,.18,2.66,.42,3.96,.75,1.69,.35,3.26,1.56,5.04,.89,1.45-.48,2.38-1.94,2.38-3.42-.42-.22-.84-.45-1.26-.66-3.47-1.63-7.12-3.09-10.97-3.39Z"/>
  <path class="cls-5" d="M365.01,289.06c.67,.1,1.32,.29,1.91,.56,3.34,.32,6.74,.66,9.88,1.89,2.21,.87,4.16,2.26,6.34,3.2,1.09,.43,2.2,.2,3.06-.4-6.64-6.58-11.86-12.11-21.99-9.45-.23,.05-.46,.12-.69,.17-.38,1.48,.1,3.17,1.49,4.03Z"/>
  <path class="cls-5" d="M228.51,322.36c1.32-1.97,2.65-3.94,3.96-5.91,2.16-3.29,4.37-6.58,7.16-9.38,13.72-12.64,32.39-19.77,50.97-20.35,6.78,0,13.57,.54,20.31,1.3,2.08,.25,4.18,.52,6.21,1.03,2.23,1,4.91,.66,5.81-1.89,.35-1.13,.22-2.04-.2-2.78-20.08-3.93-41.9-6.24-61.39,1.02-1.69,.65-3.37,1.36-5.03,2.13-2.11,1.16-4.12,2.44-6.04,3.84-.99,.72-1.96,1.47-2.91,2.24-10.18,8.33-17.75,19.69-24.22,31.25,2.12,1.06,4.4-.45,5.38-2.5Z"/>
  <path class="cls-5" d="M227.5,365.01c2.09,.87,4.35,1.27,6.54,1.78,3.7,.9,7.31,2.14,10.66,3.96,2.18,1.2,4.74,2.42,5.4,5.04,.38,1.36,.2,2.79,.18,4.18-.09,1.96,1.48,3.67,3.44,3.76,1.57,.08,2.98-.94,3.52-2.36-.14-2.54-.71-5.05-1.83-7.45-6.37-12.16-19.93-13.3-29.74-13.48-.6,1.68-.02,3.81,1.83,4.56Z"/>
  <path class="cls-3" d="M204.51,370.52c-2.94-.84-6.18,.69-8.38,2.6-2.81,2.42-2.13,7.46,1.71,8.34,5.05,1.49,13.09-7.82,6.68-10.94Z"/>
  <path class="cls-3" d="M269.78,349.91c-1.62,.09-3.21,.68-4.59,1.53-3.91,2.33-7.56,8.72-2.49,11.79,2.67,1.43,5.91,.5,8.17-1.28,2.3-.96,4.65-2.56,5.17-5.16,1.02-3.82-2.55-7.15-6.27-6.88Z"/>
  <path class="cls-3" d="M226.49,346c-4.68,.56-6.51,6.53-2.22,9.02,1.21,.59,2.56,.81,3.83,.36,1.7,.01,3.53-.06,5.02-.97,1.46-.86,2.4-2.55,2.13-4.25-.6-3.92-5.52-4.47-8.75-4.16Z"/>
  <path class="cls-3" d="M227.6,328.81c-3.7,1.38-7.34,3.85-8.99,7.56-.56,1.61-1.1,3.17-.14,4.85,.7,2.53,1.86,3.3,4.19,4.27,4.13,1.7,10.85-3.23,13.34-6.36,5.25-6.78-.63-13.93-8.39-10.32Z"/>
  <path class="cls-3" d="M205.29,386.6c.72,.67,1.06,1.59,1.93,2.15,2.64,1.94,5.98,.51,8.69-.54,3.53-1.48,7.14-3.95,8.27-7.8,1.4-4.43-2.32-9.16-7.02-8.37-3.37,.55-6.28,2.54-8.87,4.67-3.1,2.56-5.85,6-3,9.89Z"/>
  <path class="cls-3" d="M209.91,374.08c1.7,0,3.09-1.5,3.06-3.18-.03-1.72-1.48-3.06-3.18-3.06s-3.09,1.5-3.06,3.18c.03,1.72,1.48,3.06,3.18,3.06Z"/>
  <path class="cls-3" d="M200.5,382.18c-.86,.15-1.71,.4-2.34,1.03-1.36,1.25-.69,3.71,1.15,4.05,1.08,.22,2.42,0,2.97-1.06,.6-.49,.94-1.28,.82-2.1-.18-1.22-1.36-2.11-2.59-1.92Z"/>
  <path class="cls-3" d="M196.52,370.14c-.25-.85-1.12-1.42-2.01-1.27-.79,.3-1.84,.2-2.26,1.09-.7,1.07-.43,2.75,.95,3.05,1.54,.26,3.77-1.13,3.32-2.88Z"/>
  <path class="cls-3" d="M192.8,368.94c1.54,.26,2.96-.73,4.12-1.61,.99-.8,2-1.78,2.28-3.07,.31-1.16-.26-2.25-1.18-2.83-2.8,1.59-5.15,4.01-6.81,6.87,0,0,0,0,0,0,.39,.32,.92,.55,1.59,.65Z"/>
  <path class="cls-3" d="M266.38,308.08c3.46,.36,8.02-.16,9.91-3.48,1.58-3.19-.68-5.78-3.35-7.31-1.79-1.02-3.98-1.1-5.93-.54-6.6,1.48-8.28,10.12-.63,11.33Z"/>
  <path class="cls-3" d="M219.7,345.55c-3.25-1.25-5.48,2.37-2.46,4.41,.93,.63,2.24,.24,3.13-.29,1.89-1.07,1.3-3.55-.67-4.12Z"/>
  <path class="cls-3" d="M257.34,356.32c1.1-2.43,.75-5.92-1.63-7.46-5.91-2.81-7.62,7.15-4.23,10.33,2.54,2.35,5.53,.11,5.87-2.87Z"/>
  <path class="cls-3" d="M258.42,361.69c-2.04-.79-4.12,1.66-2.3,3.26,.1,.56,.48,1.06,1.04,1.3,3.67,1.34,4.61-3.38,1.26-4.56Zm-2.91,2.02c-.01-.2,.01-.41,.08-.6-.06,.19-.09,.39-.08,.6Z"/>
  <path class="cls-3" d="M278.46,371.02c-.6-.78-1.62-1.18-2.57-1.3-.4-.27-.9-.37-1.4-.25-2.05,.55-4.08,1.22-5.98,2.17-3.17,1.35-4.05,6.07-.84,7.89,3.86,2.33,14.06-3.8,10.79-8.51Z"/>
  <path class="cls-3" d="M256.77,407.89c2.3,1.48,5.57-1.06,3.39-3.34-1.06-.93-2.53-1.02-3.87-1.03-2.55,.59-1.24,3.56,.48,4.36Z"/>
  <path class="cls-3" d="M262.58,394.43c-1.97-.06-2.31,.28-3.34,1.95-2.19,2.7-1.58,5.69,1.59,7.19,3.43,1.89,8.27-1.56,7-5.44-.19-.85-.62-1.63-1.22-2.26,0,0,0,0,0,0-.47-.28-.95-.55-1.43-.81-.23-.12-.41-.28-.55-.46-.65-.22-1.34-.3-2.04-.17Z"/>
  <path class="cls-3" d="M264.6,409.96c1.78,.35,4.17,.51,5.72-.56,2.55-2.46-.25-5.15-3.15-4.77-.98-.62-2.04,.17-2.94,.58-2.31,1.05-2.14,4.13,.37,4.75Z"/>
  <path class="cls-3" d="M269.37,401.41c.35,1.04,1.13,2.07,2.28,2.19,.93,.05,1.57-.31,1.93-.86-.7-1.34-1.63-2.54-2.71-3.61-1,.29-1.83,1.19-1.51,2.27Z"/>
  <path class="cls-3" d="M312.41,380.79c-4.27,4.27-5.79,11.02-.36,15,6.68,2.77,15.28-5.78,13.06-12.56-1.65-5.62-8.97-6.69-12.7-2.44Z"/>
  <path class="cls-3" d="M308.01,376.99c-1.24-1.8-3.98-1.36-5.06,.38-1.31,1.94-1.62,7.32,.53,8.77,4.21,2.72,6.61-6.67,4.53-9.15Z"/>
  <path class="cls-3" d="M297.19,437.82c-1.68,2.01,.27,4.98,2.44,5.65,1.49,.63,3.6-.06,4.02-1.73,.28-3-3.93-6.43-6.46-3.92Z"/>
  <path class="cls-3" d="M300.48,429.9c.47-2.34-1.34-4.42-3.4-5.25-2.13-.89-4.56-1.41-6.86-.95-3.01,.39-4.76,3.78-2.77,6.26,1.39,2.05,3.78,3.11,6.2,3.33,2.57,.26,6.13-.51,6.83-3.38Z"/>
  <path class="cls-3" d="M302.95,433.92c-2.2-.54-2.94,2.8-.73,3.3,0,0-.04-.02-.04-.02,2.48,.93,3.37-2.84,.77-3.27Z"/>
  <path class="cls-3" d="M268.43,382.82c-1.78-.45-2.92,2.05-1.84,3.34,1.11,1.49,3.67,.47,3.71-1.29,.04-1.04-.95-1.79-1.87-2.05Z"/>
  <path class="cls-3" d="M266.52,366.85c-1.29-1.24-3.45-.99-4.84-.07-.59,.08-1.11,.47-1.36,1.05-.55,1.34-.53,3.12,.71,4.07,2.87,2.16,8.35-1.94,5.49-5.05Z"/>
  <path class="cls-3" d="M243.83,403.65c4.23,.12,8.08-3.91,9.26-8.09,1.72-3.39,1.45-8.3-2.21-10.12-4.14-2.04-7.49,1.75-8.75,5.39-.45,1.04-.86,2.2-1.08,3.37-2.48,3.62-2.8,8.96,2.78,9.45Z"/>
  <path class="cls-3" d="M244.66,384.2c4.38,.85,7.82-6.17,2.49-7.34-4.17-.86-7.16,6.17-2.49,7.34Z"/>
  <path class="cls-3" d="M367.42,386.94c-.77-.13-1.57,.34-1.82,1.08-1.13,1.13-.07,3.24,1.47,3.27,2.35,.08,2.6-3.96,.36-4.34Z"/>
  <path class="cls-3" d="M372.17,389.75c-4.83-.36-4.23,6.95-.16,7.8,1.9,.51,4.09-.84,4.08-2.88-.13-1.81-2.02-4.65-3.91-4.91Z"/>
  <path class="cls-3" d="M260.19,300.15c.33-.87-.11-1.8-.43-2.61-2.51-3.65-8.07,.81-5.19,4.15,1.69,1.79,4.77,.51,5.62-1.54Z"/>
  <path class="cls-3" d="M251.54,311.02c1.58,.22,3.12-.45,4.45-1.23,2.12-1.15,4.95-3.61,1.87-5.52-2.72-.91-6.02,.51-7.71,2.72-1.15,1.39-.55,3.83,1.39,4.03Z"/>
  <path class="cls-3" d="M360.3,289.62c-6.18,3.56-3.43,8.03,2.92,7.82,2.74,.14,6.36-1.38,6.33-4.55-.27-1.6-1.3-2.66-2.63-3.27-.59-.27-1.24-.46-1.91-.56-1.62-.25-3.37-.03-4.71,.56Z"/>
  <path class="cls-3" d="M371.11,294.64c.63,.46,1.5,.42,2.09-.08,2.34-.39,1.63-3.77-.67-3.35-1.61,.14-2.95,2.28-1.42,3.44Z"/>
  <path class="cls-3" d="M349.39,298.38c2.16,.5,3.4-.63,3.52-1.79,.5-.82,.36-2.05-.85-2.5-1.12-.45-2.27-.82-3.47-1.01-5.27-2.29-7.1,3.87,.8,5.3Z"/>
  <path class="cls-3" d="M355.28,301.55c3.23,.28,3.55-3.63,.82-4.79-3.17-.82-3.79,4.25-.82,4.79Z"/>
  <path class="cls-3" d="M287.13,378.96c-7.37-2.84-17.22,11.22-7.04,13.91,7.05,1.15,14.72-9.65,7.04-13.91Z"/>
  <path class="cls-3" d="M209.59,395.24s0,0,0,0c-2.2,.43-4.42,.76-6.65,.91-.29,.09-.57,.1-.84,.05-.5,.02-.99,.04-1.49,.04,.26,.88,.54,1.76,.85,2.63,.22,.57,.45,1.13,.69,1.7,.38,.27,.8,.49,1.23,.64,3.55,1.33,6.85-2.62,6.2-5.98Z"/>
  <path class="cls-3" d="M214.16,396.06c-2.16-.93-3.6,2.23-2.39,3.82,2.03,2.51,5.28-.26,3.85-2.9-.29-.58-.87-.83-1.45-.92Z"/>
  <path d="M397.91,406.55c5.5-3.05,5.25-9.01-1.24-10.34-5.84-1.1-12.27-1.54-16.83-5.82-3.51-3.01-6.85-6.41-9.02-10.53,22.36-15.97,44.15-28.18,36.37-60.02-.61-1.98-3.48-11.06-6.41-13.18,.27-1.67,.18-3.63,.24-4.7-.27-5.44-3.19-10.6-7.15-14.25-3.31-3.09-7.95-3.94-12.33-3.93-.38,0-.69,.1-.95,.24-2.67-1.9-5.61-3.39-8.92-3.71-6.81-.37-14.11,1.73-20.29,4.83-1.03-.35-2.47-.05-3.55-.19-8.5-.79-16.77-3.12-25.15-4.63-22.43-4.37-47.04-6.47-68.24,3.69-10.27,5.49-18.48,14.15-25.07,23.63-7.03,9.66-12.82,20.26-17.8,31.15-2.21,4.87-4.13,9.86-6.11,14.82-.73,.28-1.44,.63-2.02,.86-1.33,.56-2.91,1.21-4.42,2.01-.05,.03-.1,.07-.15,.1-16.3,6.32-20.61,32.01-2.78,39.25,.1,.04,.19,.06,.28,.08,.5,2.25,1.8,5.15,2.27,6.5,1.58,3.41,3.48,6.82,5.92,9.71-.16,.34-.23,.73-.16,1.09,.06,2.91-2.99,4.86-3.61,7.64-1.07,3.06,.76,6.8,4.15,7.14,1.58,.29,3.11-.51,4.68-.29,3.43,1.2,6.04,4.05,9.14,5.89,3.46,2.39,7.22,4.43,11.31,5.5,8.62,2.73,13.21-3.21,6.97-10.19,3.67,.28,7.4,.84,11.05,.14,5.74-.82,7.93-6.54,3.05-10.22,2.76-.39,6.85-1.89,7.81-4.33,.35,.04,.72,.07,1.12,.08,4.17,.49,8.4,.24,12.56-.33,.87-.25,2.37-.34,3.79-.59,.64,3.24,1.37,6.46,2.7,9.5,4.45,9.84,9.75,19.42,16.58,27.81,5.73,7.08,10.76,16.44,20.36,18.56,8.46,1.75,9.95-3.83,8.05-10.84,6.13,.31,12.84,2.76,18.68-.03,4.96-2.97,3.41-8.75-.53-11.88,4.42-3,11.28-4.51,12.76-10.3,.79-5.44-5.09-8.51-9.48-9.9-1.92-.4-4.16-1.71-6.1-1.09-4.99-3.75-10.14-7.47-14.6-11.86,3.73-.64,9.31-3.57,11.54-4.76,4.28-2.28,8.03-5.29,11.53-8.59,.25,.29,.49,.59,.74,.88,4.19,5.11,8.33,10.31,13.36,14.64,.02,.02,.04,.03,.06,.05,.1,.23,.25,.45,.46,.65,1.08,1.08,2.43,2.21,2.71,3.79-.66,2.7,.35,5.67,3.09,6.74,3.18,1.37,6.27-.62,8.84-2.35,3.76,2.99,6.58,9.28,11.64,10.33,6.67,.59,5.94-6.13,7.26-10.56,.46-2.03,2.65-2.55,4.33-3.22,3.97-1.49,9.91-5.94,6.59-10.58-2.29-2.63-6.03-2.81-9.1-4.11Zm-7.73-113.96c.18-.41,.49-.74,.86-.99,.23-.18,.49-.3,.75-.42,1.3,1.21,2.39,2.67,3.24,4.26-.06,.24-.12,.47-.19,.7-.08,.22-.16,.43-.25,.65-.14,.11-.27,.23-.38,.38-.1,.14-.2,.28-.31,.41-1.18-1.69-2.45-3.31-3.8-4.86,.03-.04,.06-.08,.08-.13Zm-42.17,102.03s-.04,.04-.06,.06c-1.11,1.12-2.24,2.23-3.39,3.3-3.46,3.22-7.16,6.14-11.51,8.22-1.75,.9-3.54,1.77-5.39,2.45-1.63,.83-4.34,.82-5.71,1.9,0,0,0,0-.01-.01-.85-.99-1.68-2-2.45-3.07,0,0,0,0-.01-.01-.58-.84-1.12-1.71-1.64-2.59s-1-1.78-1.48-2.69c-.33-.78-1.09-1.17-1.84-1.16-.76,.01-1.5,.42-1.8,1.21,0,0,0,0,0,0-.46,1.31,.75,3.12,1.73,4.64,.35,.54,.67,1.04,.87,1.47,4.63,7.11,11.26,12.47,18.03,17.52,1.9,1.42,3.81,2.81,5.69,4.21,.38,.29,.77,.41,1.15,.41,0,0,0,0,.01,0,.12,0,.24-.02,.36-.04,0,0,0,0,0,0,.12-.03,.24-.07,.35-.12,0,0,0,0,0,0,.22-.1,.42-.24,.59-.41,0,0,.01,0,.02-.02,.07-.07,.14-.15,.2-.24,.01-.02,.03-.03,.04-.05,.25,.06,.51,.11,.76,.18,0,0,0,0,.01,0,2.82,.94,8.96,2.46,8.52,6.26,0,0,0,0,0,0-1.19,2.51-4.17,3.47-6.4,4.87-4.46,2.02-6.24,3.67-6.64,5.1-.69,2.48,2.79,4.3,3.74,6.27,.06,.13,.12,.26,.15,.4,.17,.58,.09,1.17-.4,1.8-.1,.13-.22,.26-.35,.39-.14,.13-.29,.27-.46,.4-.38,.14-.77,.24-1.16,.33-.52,.12-1.05,.22-1.57,.28-.54,.06-1.07,.1-1.61,.11-4.44,.04-9.07-1.54-13.42-1.17-2.19,.46-2.74,1.86-2.73,3.52,0,.17,0,.33,.02,.5,.02,.34,.07,.69,.12,1.04,.16,1.07,.42,2.16,.53,3.11,.24,2.01-.18,3.41-3.52,2.73-.27-.05-.53-.13-.79-.19-3.82-.94-6.91-3.59-9.5-6.47-4.27-5.1-8.15-10.52-12.22-15.77-4.93-7.44-9.39-15.11-12.74-23.44-3.34-9.67-1.81-19.82-11.44-26.12-.1-.07-.2-.14-.31-.2-.1-.05-.19-.12-.29-.18-1.37-.85-2.79-2.25-4.45-1.97-.62,.15-1.04,.59-1.26,1.12-.27,.67-.18,1.48,.27,2.04,.15,.18,.32,.35,.55,.46,.48,.25,.96,.52,1.43,.81,.73,.44,1.45,.93,2.13,1.45,.75,.56,1.47,1.17,2.13,1.83,1.08,1.07,2.01,2.27,2.71,3.61,.29,.56,.56,1.14,.77,1.75,.53,1.71,.92,3.46,1.29,5.22,0,0,0,0,0,0-.06,.02-.13,.03-.19,.05-.93,.19-1.86,.35-2.8,.49-1.49,.22-2.99,.39-4.49,.5-.64,.04-1.28,.07-1.92,.09-2.68,.09-5.37-.02-7.99-.56-.27-.09-.54-.12-.79-.11-.09-.07-.21-.14-.32-.21-.09-.06-.16-.12-.26-.18-.16-.1-.34-.19-.53-.29-.06-.03-.12-.07-.18-.1-1.56-.8-3.85-1.63-5.97-2.04,1.42-1.41,2.75-2.91,3.95-4.54,.77-1.05,1.49-2.14,2.15-3.26,.1-.18,.21-.36,.31-.54,.4-.71,.78-1.42,1.13-2.15,0,0,0-.02,.01-.03,.04-.07,.07-.15,.1-.22,.56-1.19,1.06-2.4,1.49-3.63,0-.03,.02-.05,.03-.08,.4-1.16,.73-2.33,1.01-3.51,.18-.77,.33-1.55,.45-2.33,.06-.39,.11-.77,.16-1.16,.07-.65,.13-1.29,.16-1.94,.03-.55,.04-1.1,.04-1.65,0-.89-.06-1.77-.15-2.65-.14-1.31-.39-2.61-.74-3.88-1.29-4.65-4.03-8.91-8.54-12.24-6.76-5.43-15.54-6.83-23.98-6.98-3.31-.13-6.63-.19-9.94-.35-.82-.03-1.75-.19-2.49,.2-.15,.08-.3,.18-.43,.31-.01,.01-.03,.02-.05,.04h0c-.34,.56-.53,1.04-.57,1.43-.01,.1-.01,.19,0,.29,.02,.27,.12,.5,.28,.7,.49,.58,1.57,.87,3.1,1.02,.61,.06,1.29,.1,2.03,.13,.37,.01,.76,.02,1.16,.03,.68,.01,1.4,.02,2.16,.03,.26,0,.52,0,.79,0,.51,0,1.04,.01,1.58,.02,.1,0,.2,0,.3,0,9.81,.18,23.37,1.33,29.74,13.48,1.12,2.4,1.69,4.91,1.83,7.45,.29,5.45-1.45,11.01-4.23,15.84-1.02,1.78-2.18,3.46-3.43,4.99-2.4,2.82-5.19,5.23-8.16,7.41-1.57,1.15-3.18,2.25-4.82,3.29-3.65,2.36-7.32,4.67-11.13,6.78-.04,.02-.07,.06-.11,.08-.24,.16-.43,.36-.57,.58-.14,.23-.22,.48-.25,.74-.02,.19-.02,.38,0,.57,.08,.57,.39,1.1,.88,1.41,.16,.1,.35,.18,.55,.23,.11,.02,.23,.02,.35,.01,.25-.01,.53-.08,.84-.17,.15-.05,.31-.11,.47-.17,2.31-.92,5.6-3.44,7.22-4.26,.12-.08,.24-.16,.37-.23,3.7-2.33,7.42-4.74,10.84-7.49,.17,.05,.35,.08,.53,.09,0,0,.01,0,.02,0,2.1,.02,4.27,.33,6.23,1.12,.38,.15,.76,.32,1.13,.52,.03,.01,.05,.02,.08,.04,.32,.17,.64,.36,.94,.57-1.63,1.51-5.74,1.44-8.16,2.54-.56,.25-1.03,.57-1.35,.98-.03,.04-.05,.1-.08,.14-.21,.31-.36,.66-.4,1.08,0,.02,0,.03,0,.05-.02,.23-.02,.47,.02,.74,.39,2.19,8,4.04,3.38,6.03-1.25,.41-2.57,.54-3.88,.55,0,0-.02,0-.02,0-.8,0-1.59-.02-2.38-.05-.1,0-.21-.01-.33-.02-.22-.02-.46-.04-.71-.07-.03,0-.05,0-.08,0-.24-.02-.5-.05-.76-.08-.4-.04-.82-.09-1.25-.13-3.88-.36-8.7-.36-6.61,4.35,.48,.88,1.3,1.68,2.03,2.51,.92,1.05,1.68,2.16,1.4,3.58-7.27,1.1-14.23-4.9-19.9-8.76-.57-.42-1.15-.84-1.76-1.23-1-.65-2.07-1.21-3.19-1.54-.9-.26-1.84-.39-2.83-.25-.93,.02-1.97,.54-2.88,.27-.15-.04-.29-.1-.43-.19-1.44-2.09,2.09-5.07,3.25-8.25,.9,.7,1.85,1.34,2.87,1.89,.02,.01,.04,.02,.06,.03,.57,.33,1.22,.29,1.75,.02,.56-.28,1-.81,1.12-1.43,.06-.28,.04-.58-.06-.89-.07-.23-.19-.42-.33-.6-.46-.61-1.22-.97-1.9-1.38-.2-.12-.39-.24-.56-.37-.87-.55-1.63-1.23-2.35-1.96-.18-.18-.36-.37-.53-.56-1.02-1.18-1.95-2.43-2.81-3.73-1.25-1.9-2.32-3.92-3.22-6.01-.24-.56-.47-1.13-.69-1.7-.31-.87-.59-1.75-.85-2.63,.5,0,.99-.02,1.49-.04,.27,.05,.55,.04,.84-.05,2.23-.15,4.45-.49,6.65-.91,.29-.06,.58-.11,.88-.17,.13-.03,.26-.05,.39-.08,.11-.02,.21-.05,.3-.08,.42-.13,.78-.4,1.03-.75,0,0,0,0,0,0,2.97,.4,5.79,1.69,8.7,2.5,.46,.13,.92,.24,1.38,.34,.06,.01,.12,.03,.18,.04,.63,.16,1.16,.04,1.56-.24,1.22-.83,1.31-3.08-.56-3.59-3.14-.74-6.14-1.94-9.26-2.74-4.09-1.1-8.21,.12-11.97,1.74,0,0,0,0,0,0-1.16,.06-2.32,.1-3.47,.04-.32-.02-.63-.04-.95-.07-.09-.01-.17,0-.25,0,0,0-.02,0-.03-.01-.22-.08-.42-.18-.63-.27-.19-.08-.38-.16-.57-.25-.2-.1-.39-.22-.58-.33-.19-.11-.38-.21-.57-.32-.18-.12-.35-.25-.53-.37-.18-.13-.37-.25-.54-.39-.17-.13-.33-.28-.49-.42-.17-.14-.34-.28-.5-.43-.18-.17-.35-.36-.53-.54-.13-.14-.27-.26-.39-.4-.21-.23-.4-.48-.59-.72-.08-.1-.17-.2-.25-.3-.53-.71-1-1.46-1.4-2.23-.33-.69-.59-1.4-.81-2.12-1.49-4.84-.55-10.3,2.06-14.75,1.67-2.85,4.01-5.27,6.81-6.87,.32-.18,.64-.37,.97-.53,.4-.2,.82-.38,1.23-.56,.18-.08,.35-.16,.53-.24,0,0,0,0,0,0,.15-.07,.29-.15,.41-.24,1.22-.62,2.47-1.16,3.73-1.69,.03-.01,.06-.03,.09-.04,.88-.37,1.79-.76,2.74-1.07,.76-.25,1.25-.96,1.31-1.72,.57-1.08,.86-2.55,1.37-3.48,2.04-5.19,4.18-10.25,6.58-15.25,.72-1.5,1.45-2.99,2.23-4.48,1.27-2.4,2.58-4.83,3.93-7.24,6.47-11.56,14.03-22.92,24.22-31.25,.95-.77,1.92-1.52,2.91-2.24,1.92-1.39,3.93-2.67,6.04-3.84,.07-.04,.14-.09,.22-.13,1.59-.74,3.19-1.4,4.81-2.01,19.49-7.26,41.32-4.95,61.39-1.02,.08,.01,.15,.03,.23,.04,1.85,.34,3.71,.72,5.58,1.12,3.25,.68,6.53,1.4,9.84,2.02,2.4,.46,4.82,.87,7.25,1.18,.19,0,.41,.01,.63,.03,.68,.05,1.49,.16,2.3,.23,.56,.87,1.9,1.24,3.16,.46,.18-.11,.36-.25,.53-.41,3.58-1.78,7.39-3.09,11.28-4.01,.23-.05,.46-.12,.69-.17,10.13-2.67,15.35,2.87,21.99,9.45,.09,.09,.18,.18,.27,.27,2.91,2.89,4.75,6.61,7.27,9.77,.01,.02,.03,.04,.04,.06,.29,.45,.58,.89,.87,1.33,.22,.34,.44,.69,.67,1.03,.02,.03,.04,.06,.06,.09,.17,.25,.34,.5,.51,.75,.1,.15,.2,.3,.31,.46,.28,.4,.56,.8,.85,1.2,.01,.02,.03,.03,.04,.05,1.07,1.45,2.35,2.73,3.42,4.17,1.45,2.88,2.58,5.92,3.26,9.07,.31,1.37,.55,2.76,.72,4.17,0,0,0,.01,0,.02-5.95-1.85-11.79,2.17-16.12,5.96-2.48,2.2-4.93,4.5-7.39,6.82-1.66,1.57-3.32,3.16-4.99,4.74-11.69,11.05-23.9,21.8-39.92,25.28-1.14,.24-2.28,.43-3.44,.57-.3,.04-.59,.09-.89,.11-.77-.06-1.57,.14-2.09,.62-.03,.03-.07,.05-.1,.09-.08,.08-.14,.18-.21,.28-.02,.03-.05,.06-.07,.09-.04,.08-.07,.17-.1,.25-.02,.06-.06,.12-.07,.19-.02,.08-.02,.18-.03,.27,0,.08-.03,.16-.03,.25h0c0,.08,.02,.15,.03,.23,.01,.08,.02,.17,.03,.24,.49,2.12,3.36,1.44,5.06,1.2,10.18-1.54,19.3-6.27,27.57-12.26,2.39-1.73,4.71-3.57,6.97-5.47,.48-.4,.95-.8,1.42-1.21,1.12-.97,2.23-1.95,3.31-2.93,.14-.13,.29-.26,.43-.39,1.94-1.79,3.86-3.61,5.78-5.43,3.24-3.08,6.47-6.16,9.77-9.18,2.23-1.92,4.59-4.15,7.28-5.52,1.61-.83,3.34-1.34,5.22-1.3,.06,0,.11,0,.16,0,.09,0,.18,0,.26,0,.05,0,.1,.02,.15,.02,.09,.01,.17,.02,.26,.04,.03,0,.06,.02,.09,.02,.1,.02,.2,.05,.29,.08,.01,0,.02,0,.03,.01,.59,.21,1.11,.55,1.62,.84h0c.06,7.18-1.82,14.36-5.97,20.22-.47,.66-.96,1.31-1.48,1.93-11.84,13.34-28.27,21.27-41.36,33.19-1.36,1.28-2.68,2.6-3.99,3.94-.05,.05-.1,.1-.14,.15-1.28,1.3-2.55,2.62-3.83,3.91Zm55.83,19.35c-.26,.44-.57,.82-.9,1.16-1.8,1.83-4.52,2.44-6.82,3.64-.69,.36-1.35,.78-1.93,1.3-.16,.16-.32,.33-.46,.5-1.45,1.75-1.88,4.02-2.24,6.27-.06,.36-.11,.72-.17,1.08-.11,.7-.23,1.39-.38,2.06-.22,.56-.51,.88-.86,1.02-2.47,.95-7.81-7.34-9.32-8.5-1.11-1.12-2.05-1.62-2.93-1.75-2.21-.33-3.96,1.75-6.63,2.71-3.21,.18-1.62-1.4-2.19-4.27-.3-1.51-1.2-3.37-3.71-5.53,0,0,0,0,0,0-.01-.01-.02-.02-.04-.03-.1-.23-.25-.46-.48-.67-3.13-2.72-5.99-5.74-8.62-8.95-1.19-1.42-2.38-2.83-3.54-4.27-.65-.65-1.16-1.58-1.84-2.25,1.27-1.29,2.51-2.61,3.74-3.93,.33-.35,.69-.67,1.02-1.02,3.72-3.76,7.82-7.13,12.05-10.31,0,0,0,0,0,0,4.56,7.52,11.49,14.49,20.32,16.42,.41,.12,.82,.22,1.24,.3,2.64,.52,5.53,.45,7.91,1.64,.28,.14,.56,.3,.83,.48,0,0,0,0,0,0-.72,2.02-3.26,2.29-4.61,3.74-.59,.53-.87,1.29-.83,2.02,.02,.33,.11,.66,.26,.96,.01,.03,.02,.06,.04,.09,.02,.03,.04,.06,.06,.09,.18,.29,.41,.54,.71,.74,.06,.08,.14,.15,.23,.23,1.06,.9,4.05,1.69,6.53,2.5,2.37,.78,4.27,1.57,3.54,2.52Z"/>
  <path d="M386.78,312.57c-.05-.18-.12-.37-.24-.54-.31-.56-.82-.8-1.39-.93-.37-.09-.75-.13-1.13-.19-.13-.02-.27-.04-.4-.07-.53-.1-1.05,.08-1.46,.4s-.69,.8-.76,1.32c-.03,.23-.03,.44,0,.63,0,.05,.04,.1,.05,.15,.03,.13,.07,.26,.13,.37,.03,.05,.08,.1,.11,.15,.06,.09,.12,.18,.21,.26,.05,.05,.11,.08,.16,.12,.09,.07,.17,.14,.27,.19,.06,.04,.13,.06,.19,.09,.1,.05,.2,.1,.31,.14,.07,.02,.14,.04,.21,.06,.12,.04,.23,.08,.35,.11,.06,.02,.13,.02,.19,.04,.13,.03,.26,.05,.39,.07,.05,0,.09,.01,.13,.02,.14,.02,.28,.04,.41,.05,0,0,.02,0,.03,0,.04,0,.07,0,.11,0,.16,.02,.31,.02,.46,0,.02,0,.05-.02,.07-.02,.16-.03,.31-.07,.45-.14,.02,0,.04-.03,.06-.04,.14-.07,.28-.16,.4-.27,.03-.02,.04-.05,.07-.07,.11-.1,.21-.21,.29-.33,.03-.05,.05-.1,.08-.15,.06-.11,.13-.22,.17-.34,.03-.08,.03-.16,.05-.24,.02-.1,.05-.19,.06-.29,0-.12-.02-.24-.03-.36,0-.06,0-.13-.02-.19Z"/>
  <path d="M390.17,308.62c-.65-.09-1.17,.11-1.54,.45-1.11,1.04-.92,3.46,1.02,3.68,2.1,.29,2.83-2.42,1.65-3.61-.27-.27-.65-.47-1.13-.52Z"/>
  <path d="M331.29,351.45c.45,.02,.89,.02,1.33,0,.08,0,.15-.01,.23-.01,.41-.02,.82-.04,1.23-.08,6.11-.61,11.77-3.98,14.91-9.39,.21-.37,.4-.75,.58-1.13,.02-.05,.04-.1,.06-.15,.29-.62,.55-1.26,.77-1.9,1.57-4.52,1.56-9.53,.72-14.25-.13-.76-.29-1.51-.46-2.24-.19-.75-.42-1.5-.68-2.24-.81-2.33-1.95-4.57-3.58-6.41-.03-.03-.06-.07-.09-.11-.32-.35-.65-.68-1-1-.07-.07-.15-.12-.23-.19-.73-.62-1.5-1.19-2.29-1.73-4.32-2.89-9.55-4.41-14.72-4.53-.54,0-1.08,.02-1.62,.06-8.75,.63-16.68,6.97-19.11,15.45-.93,3.4-1.02,7.02-.38,10.5,.09,.5,.2,.99,.32,1.49,.98,3.94,2.9,7.65,5.59,10.62,.59,.63,1.21,1.21,1.87,1.75,.78,.65,1.63,1.21,2.49,1.73,.83,.5,1.68,.95,2.57,1.35,.89,.4,1.8,.76,2.73,1.06,2.8,.88,5.75,1.31,8.67,1.34,.04,0,.07,0,.11,0Zm.86-28.99c1.08-1.5,2.69-3.04,4.61-3.2,.9-.05,1.53,.59,2.4,.69,3.46,3.82,3.68,10.2-2.49,10.97-4.59,.59-6.76-4.97-4.52-8.46Z"/>
  <path d="M307.12,307.96c.27,.25,.55,.4,.81,.49,.72,.22,1.41-.09,2.05-.59,.03-.03,.07-.06,.1-.08,.09-.08,.19-.15,.28-.23,.4-.35,.77-.74,1.13-1.07,.13-.13,.27-.25,.39-.35,1.14-1.03,2.47-2.23,3.93-3.26,5.38-3.57,11.99-4.64,18.43-4.61,3.85,.31,7.51,1.76,10.97,3.39,.43,.21,.84,.44,1.26,.66,1.59,.82,3.14,1.7,4.66,2.65,.19,.15,.4,.25,.62,.32,.03,0,.06,.02,.09,.03,.02,0,.05,0,.07,.01,.74,.16,1.55-.09,2.02-.73,.02-.03,.03-.05,.05-.08,.06-.1,.12-.19,.17-.28,.02-.03,.02-.06,.04-.09,.29-.68,.17-1.25-.18-1.74-.12-.16-.26-.32-.41-.47-.16-.15-.34-.3-.54-.43-.48-.34-1.02-.63-1.48-.89-5.07-2.97-10.58-5.58-16.48-6.25-3.86-.23-7.77,.19-11.55,1.1-1.82,.44-3.61,.98-5.35,1.64-1.57,.63-3.04,1.45-4.42,2.39-1.45,.99-2.81,2.11-4.1,3.31-.89,.92-2.59,1.98-3.04,3.22-.22,.61-.15,1.26,.49,1.97Z"/>
</svg>