<?xml version="1.0" encoding="UTF-8"?>
<svg id="sun" xmlns="http://www.w3.org/2000/svg" viewBox="0 0 240.52 240.52">
  <defs>
    <style>
      .cls-1 {
        fill: #231f20;
      }
    </style>
  </defs>
  <circle class="cls-1" cx="120.26" cy="120.26" r="71.89"/>
  <path class="cls-1" d="M120.26,35.28c-3.31,0-6-2.69-6-6V6c0-3.31,2.69-6,6-6s6,2.69,6,6V29.28c0,3.31-2.69,6-6,6Z"/>
  <path class="cls-1" d="M29.28,126.26H6c-3.31,0-6-2.69-6-6s2.69-6,6-6H29.28c3.31,0,6,2.69,6,6s-2.69,6-6,6Z"/>
  <path class="cls-1" d="M120.26,240.52c-3.31,0-6-2.69-6-6v-23.28c0-3.31,2.69-6,6-6s6,2.69,6,6v23.28c0,3.31-2.69,6-6,6Z"/>
  <path class="cls-1" d="M234.52,126.26h-23.28c-3.31,0-6-2.69-6-6s2.69-6,6-6h23.28c3.31,0,6,2.69,6,6s-2.69,6-6,6Z"/>
  <path class="cls-1" d="M55.93,61.93c-1.54,0-3.07-.59-4.24-1.76l-16.46-16.46c-2.34-2.34-2.34-6.14,0-8.49s6.14-2.34,8.49,0l16.46,16.46c2.34,2.34,2.34,6.14,0,8.49-1.17,1.17-2.71,1.76-4.24,1.76Z"/>
  <path class="cls-1" d="M39.47,207.05c-1.54,0-3.07-.59-4.24-1.76-2.34-2.34-2.34-6.14,0-8.49l16.46-16.46c2.34-2.34,6.14-2.34,8.49,0s2.34,6.14,0,8.49l-16.46,16.46c-1.17,1.17-2.71,1.76-4.24,1.76Z"/>
  <path class="cls-1" d="M201.05,207.05c-1.54,0-3.07-.59-4.24-1.76l-16.46-16.46c-2.34-2.34-2.34-6.14,0-8.49,2.34-2.34,6.14-2.34,8.49,0l16.46,16.46c2.34,2.34,2.34,6.14,0,8.49-1.17,1.17-2.71,1.76-4.24,1.76Z"/>
  <path class="cls-1" d="M184.59,61.93c-1.54,0-3.07-.59-4.24-1.76-2.34-2.34-2.34-6.14,0-8.49l16.46-16.46c2.34-2.34,6.14-2.34,8.49,0,2.34,2.34,2.34,6.14,0,8.49l-16.46,16.46c-1.17,1.17-2.71,1.76-4.24,1.76Z"/>
</svg>