<?xml version="1.0" encoding="UTF-8"?>
<svg id="thermometer" xmlns="http://www.w3.org/2000/svg" viewBox="0 0 240.52 281.79">
  <defs>
    <style>
      .cls-1 {
        fill: #231f20;
      }
    </style>
  </defs>
  <path class="cls-1" d="M195.53,181.96V20.75c0-5.73-2.5-10.92-6.55-14.67-4.05-3.76-9.64-6.08-15.82-6.08-12.35,0-22.37,9.29-22.37,20.75V181.96c-8.85,6.91-14.56,17.81-14.56,30.08,0,20.88,16.53,37.81,36.93,37.81s36.93-16.93,36.93-37.81c0-12.27-5.71-23.17-14.56-30.08Zm-22.37,57.89c-14.42,0-26.15-12.48-26.15-27.81,0-5.26,1.38-10.19,3.78-14.39,2.58-4.51,6.31-8.18,10.78-10.52V20.75c0-5.93,5.2-10.75,11.6-10.75s11.6,4.82,11.6,10.75V187.13c4.46,2.34,8.2,6.01,10.78,10.52,2.4,4.2,3.78,9.13,3.78,14.39,0,15.33-11.74,27.81-26.15,27.81Z"/>
</svg>