<?xml version="1.0" encoding="UTF-8"?>
<svg id="drops" xmlns="http://www.w3.org/2000/svg" viewBox="0 0 157.86 199.98">
  <defs>
    <style>
      .cls-1 {
        fill: #231f20;
      }
    </style>
  </defs>
  <path class="cls-1" d="M50.52,199.98h0c-28.03,0-47.67-27.68-38.41-54.14L41.89,60.78c1.28-3.67,4.75-6.12,8.63-6.12h0c3.89,0,7.35,2.46,8.63,6.12l29.78,85.07c9.26,26.46-10.38,54.14-38.41,54.14Z"/>
  <path class="cls-1" d="M108.34,88.88h0c-17.14,0-29.15-16.93-23.49-33.11L103.06,3.75c.79-2.24,2.9-3.75,5.28-3.75h0c2.38,0,4.49,1.5,5.28,3.75l18.21,52.03c5.66,16.18-6.35,33.11-23.49,33.11Z"/>
</svg>